<svg width="16" height="16" viewBox="0 0 16 16" fill="none" xmlns="http://www.w3.org/2000/svg">
<path d="M7.87636 5.09941L10.1818 7.31696C10.1818 7.28187 10.1818 7.23976 10.1818 7.20467C10.1818 6.64632 9.95195 6.11084 9.54278 5.71603C9.13361 5.32122 8.57865 5.09941 8 5.09941C7.95636 5.09941 7.92 5.09941 7.87636 5.09941ZM4.74909 5.66082L5.87636 6.74853C5.84 6.8959 5.81818 7.04327 5.81818 7.20467C5.81818 7.76303 6.04805 8.29851 6.45722 8.69332C6.86639 9.08813 7.42135 9.30994 8 9.30994C8.16 9.30994 8.32 9.28889 8.47273 9.2538L9.6 10.3415C9.11273 10.5731 8.57455 10.7134 8 10.7134C7.03558 10.7134 6.11065 10.3438 5.4287 9.68575C4.74675 9.02773 4.36364 8.13526 4.36364 7.20467C4.36364 6.65029 4.50909 6.13099 4.74909 5.66082ZM0.727273 1.78011L2.38545 3.38011L2.71273 3.6959C1.51273 4.60818 0.567273 5.80117 0 7.20467C1.25818 10.2854 4.36364 12.4678 8 12.4678C9.12727 12.4678 10.2036 12.2573 11.1855 11.8784L11.4982 12.1731L13.6218 14.2222L14.5455 13.331L1.65091 0.888885L0.727273 1.78011ZM8 3.6959C8.96442 3.6959 9.88935 4.06558 10.5713 4.7236C11.2532 5.38162 11.6364 6.27409 11.6364 7.20467C11.6364 7.6538 11.5418 8.08889 11.3745 8.48187L13.5055 10.538C14.5964 9.66082 15.4691 8.50994 16 7.20467C14.7418 4.12397 11.6364 1.94152 8 1.94152C6.98182 1.94152 6.00727 2.11696 5.09091 2.43274L6.66909 3.94152C7.08364 3.78713 7.52727 3.6959 8 3.6959Z" />
</svg>
