<svg width="16" height="16" viewBox="0 0 16 16" fill="none" xmlns="http://www.w3.org/2000/svg">
<path d="M8 5.86666C7.42135 5.86666 6.86639 6.09142 6.45722 6.49149C6.04805 6.89157 5.81818 7.43419 5.81818 7.99999C5.81818 8.56578 6.04805 9.10841 6.45722 9.50848C6.86639 9.90856 7.42135 10.1333 8 10.1333C8.57865 10.1333 9.13361 9.90856 9.54278 9.50848C9.95195 9.10841 10.1818 8.56578 10.1818 7.99999C10.1818 7.43419 9.95195 6.89157 9.54278 6.49149C9.13361 6.09142 8.57865 5.86666 8 5.86666ZM8 11.5555C7.03558 11.5555 6.11065 11.1809 5.4287 10.5141C4.74675 9.84735 4.36364 8.94298 4.36364 7.99999C4.36364 7.057 4.74675 6.15263 5.4287 5.48583C6.11065 4.81904 7.03558 4.44443 8 4.44443C8.96442 4.44443 9.88935 4.81904 10.5713 5.48583C11.2532 6.15263 11.6364 7.057 11.6364 7.99999C11.6364 8.94298 11.2532 9.84735 10.5713 10.5141C9.88935 11.1809 8.96442 11.5555 8 11.5555ZM8 2.66666C4.36364 2.66666 1.25818 4.87821 0 7.99999C1.25818 11.1218 4.36364 13.3333 8 13.3333C11.6364 13.3333 14.7418 11.1218 16 7.99999C14.7418 4.87821 11.6364 2.66666 8 2.66666Z" />
</svg>
