<svg width="19" height="21" viewBox="0 0 19 21" fill="none" xmlns="http://www.w3.org/2000/svg">
  <path d="M12.8558 10.4474C13.7072 9.78165 14.3296 8.86675 14.6363 7.83032C14.9429 6.79389 14.9185 5.6876 14.5664 4.66572C14.2143 3.64384 13.552 2.75731 12.672 2.12976C11.792 1.50221 10.7381 1.16492 9.65731 1.16492C8.57647 1.16492 7.52257 1.50221 6.64257 2.12976C5.76258 2.75731 5.10035 3.64384 4.74825 4.66572C4.39614 5.6876 4.3717 6.79389 4.67835 7.83032C4.98499 8.86675 5.60742 9.78165 6.45885 10.4474C4.85024 11.0875 3.47038 12.195 2.49735 13.6269C1.52431 15.0589 1.00276 16.7496 1 18.4808V19.3462C1 19.5757 1.09117 19.7958 1.25347 19.9581C1.41576 20.1204 1.63587 20.2116 1.86538 20.2116H17.4423C17.6718 20.2116 17.8919 20.1204 18.0542 19.9581C18.2165 19.7958 18.3077 19.5757 18.3077 19.3462V18.4808C18.3055 16.7504 17.785 15.0602 16.8132 13.6284C15.8415 12.1965 14.4631 11.0886 12.8558 10.4474ZM6.19231 6.36543C6.19231 5.6808 6.39532 5.01155 6.77568 4.4423C7.15604 3.87305 7.69666 3.42938 8.32917 3.16738C8.96169 2.90539 9.65769 2.83684 10.3292 2.9704C11.0006 3.10396 11.6174 3.43364 12.1015 3.91775C12.5856 4.40185 12.9153 5.01864 13.0489 5.69011C13.1824 6.36159 13.1139 7.05759 12.8519 7.6901C12.5899 8.32261 12.1462 8.86323 11.577 9.24359C11.0077 9.62395 10.3385 9.82697 9.65385 9.82697C8.73579 9.82697 7.85533 9.46227 7.20617 8.8131C6.557 8.16394 6.19231 7.28348 6.19231 6.36543ZM2.73077 18.4808C2.73077 16.6447 3.46016 14.8838 4.75849 13.5855C6.05682 12.2871 7.81773 11.5577 9.65385 11.5577C11.49 11.5577 13.2509 12.2871 14.5492 13.5855C15.8475 14.8838 16.5769 16.6447 16.5769 18.4808H2.73077Z" stroke-width="0.5" />
</svg>
  